<svg id="Layer_1" data-name="Layer 1" xmlns="http://www.w3.org/2000/svg" viewBox="0 0 159.3 161.13"><defs><style>.cls-1{fill:#d04785;}.cls-2{fill:#48d072;}.cls-3{fill:#48d073;}.cls-4{fill:#d22e56;}.cls-5{fill:#d13667;}.cls-6{fill:#3c82b6;}.cls-7{fill:#d13f76;}.cls-8{fill:#2b7bb7;}.cls-9{fill:#239c7f;}.cls-10{fill:#1f9a7f;}.cls-11{fill:#d51428;}.cls-12{fill:#1f9b7f;}.cls-13{fill:#d2284b;}.cls-14{fill:#d31d38;}.cls-15{fill:#33b379;}.cls-16{fill:#35b27c;}.cls-17{fill:#3ab67b;}.cls-18{fill:#2060c7;}.cls-19{fill:#016bb6;}.cls-20{fill:#295f86;}.cls-21{fill:#219980;}.cls-22{fill:#34b578;}.cls-23{fill:#fafdf9;}.cls-24{fill:#f4fbf6;}.cls-25{fill:#f9fcf9;}.cls-26{fill:#2777b7;}.cls-27{fill:#1a75b6;}.cls-28{fill:#fdfdfb;}</style></defs><title>icon</title><path class="cls-1" d="M6.59,59.49l52-.12.59.58c1.69,4.67.6,9.5.84,14.26.16,3.14,0,6.29,0,9.43.12,12.82,6.84,22,19,26.05,1.41.47,2.83.93,4.23,1.46,6.76,1.54,13.59.48,20.38.69,7.35.23,7.37.12,7.37,7.61,0,13.64,0,27.29,0,40.93,0,1.63.45,3.33-.49,4.88h-6a4.3,4.3,0,0,1-1.26-2.63c-1.69-14-9.38-24.73-19.1-34.29-3.6-3.58-6.8-7.59-11.11-10.41-3.77-3-7.54-6-12-7.93-4.87-2.39-9.55-5.26-15.19-5.55-4.35-1.93-9-1.63-13.55-1.7-7.28-.14-14.46.29-21.38,2.94-1.57.6-3.57,1.27-4.79-.93-.09-14,0-27.93,0-41.9C6.12,61.74,5.87,60.54,6.59,59.49Z" transform="translate(-5.42 -6.27)"/><path class="cls-2" d="M130.63,6.27l8.74.3c-.43,2.89-2.5,1-3.63,1.29,6.92,1.12,13.45,3.33,18.09,9.29a4.42,4.42,0,0,1-1.08,1c-2,.89-4.22.66-6.34.64-3.17,0-4.36,1.47-4.36,4.56s1.11,4.67,4.33,4.51c2.59-.13,5.56.51,5.72-3.56.08-2-.14-4,1-5.78,3.84-1.4,6.88,2.33,10.6,1.68,1.86,6,.56,12.14.86,18.21.11,2.22-1.68,2.07-3.17,2.07-5.13,0-10.29.29-15.4-.11-7.32-.56-12.64-4.71-14.61-11.59A46.39,46.39,0,0,1,130.63,6.27Z" transform="translate(-5.42 -6.27)"/><path class="cls-2" d="M163.56,133.51a4.36,4.36,0,0,1,1,3.8,37,37,0,0,1-6.21,14.42c-1,1.51-1.9,3.18-4.1,3.14a1.94,1.94,0,0,1-1.23-.78,7.81,7.81,0,0,1-.85-3.83c-.11-2.21-.17-4.47-2.94-5.07-2.11-.45-4.52-1-6.14.69s-1.11,4.39-.85,6.68c.22,1.92,1.78,2.14,3.33,2.29,2.1.2,4.37-.27,6.13,1.42.92,3.5-2.48,6.63-.89,10.2-6.38,1.73-12.76.6-19.14,0-2.1-.19-2.24-1.55-2.14-3.16.33-5.29.35-10.62,1.06-15.86a16.83,16.83,0,0,1,16.57-14.21C152.62,133.21,158.09,133.42,163.56,133.51Z" transform="translate(-5.42 -6.27)"/><path class="cls-3" d="M5.53,151.27q.08-9.91.16-19.82c5.31,0,10.63-.13,15.94-.11,9.44,0,17,6.68,17.82,16,.43,5.11.06,10.29.15,15.44,0,2.2-.8,3.09-3,2.56-6.4-1.39-12.63-3.19-17.69-7.69-.52-.9-1.06-1.8-.11-2.76a5.9,5.9,0,0,1,3.76-.93c3.82.2,4.76-1.87,4.61-5.24-.12-2.69-.3-4.86-3.87-5-3.32-.09-5.45.68-5.38,4.52a7,7,0,0,1-1.44,4.62,2.12,2.12,0,0,1-3.06.23c-2.39-1.63-4.62-.81-6.87.23Z" transform="translate(-5.42 -6.27)"/><path class="cls-4" d="M61.6,109.31c4.94,1.26,8.66,4.35,12,8,4.28,4.3,5.42,8.91,4.13,15.23-1.7,8.36-.37,17.1-.57,25.68-.06,2.45.29,5-1.59,7H64.65c-1.21-9.66-.18-19.37-.56-29-.12-2.92.6-5.9-.54-8.77a50.85,50.85,0,0,0-4.1-10.07C62.49,115.31,60.88,112,61.6,109.31Z" transform="translate(-5.42 -6.27)"/><path class="cls-5" d="M75.59,165.26q0-12.48,0-25c0-.67,0-1.33,0-2-.1-7.05,3.24-14.43-2-21,4.83,2.06,7.63,6.35,11,10,7.26,7.3,8.44,16.23,6.75,25.84-.71,4,1,8.39-1.76,12.1Z" transform="translate(-5.42 -6.27)"/><path class="cls-6" d="M108.68,52.13c6,9.16,14.39,13.13,25.43,12.44,8.79-.55,17.64-.15,26.47-.17,2,0,4-.31,4,2.87-.1,14.49-.06,29-.07,43.46a1.39,1.39,0,0,1-1,1.53,6.21,6.21,0,0,1-1-1.51c-1.26-9.55-.28-19.14-.57-28.71-.1-3.3.08-6.62-.06-9.92-.08-1.75.31-3.72-1.49-5-4.75-.77-9.53-.14-14.29-.36-3.78-.18-.52,3.27-2,4.33-2.65,2.52-6,1.77-9,1.52-17.21-1.42-31.91-8.5-44.49-20.19A8.8,8.8,0,0,1,88,48.89c-.1-4.36,2.72-3.32,5.05-2.55C98.3,48.09,103.31,50.6,108.68,52.13Z" transform="translate(-5.42 -6.27)"/><path class="cls-7" d="M89.59,165.27c-1.11-8.58,1.95-17,.23-25.77-.91-4.65-3.95-7.94-5.22-12.17,11.18,10.27,19.6,22,20,37.95Z" transform="translate(-5.42 -6.27)"/><path class="cls-8" d="M108.68,52.13c-.28,1.65-.85,2.38-2.57,1.19-4.47-3.08-9.87-4-14.72-6.17-1.34-.61-2.57-.91-2.79,1.17-6.22-1.95-9.14-6.91-11.41-12.48,1.74-2.43,3.8-1,5.75-.44,7.54,2.3,14.57,6,22.25,8a6.34,6.34,0,0,1,1.22,1A15.58,15.58,0,0,0,108.68,52.13Z" transform="translate(-5.42 -6.27)"/><path class="cls-9" d="M153.79,17.11c-5.92-3.42-11.57-7.39-19.57-8.87l5.14-1.67,11.08-.07c3.81,1.68,7.92,2.92,10.07,7C159.75,17.43,156.79,17.31,153.79,17.11Z" transform="translate(-5.42 -6.27)"/><path class="cls-10" d="M154.63,154.37c3.62-3.84,5.85-8.51,7.87-13.29.57-1.34.85-2.8,2.08-3.77l.13,8.07c.15,7-1,13.54-7.42,17.82C154,161,153.46,157.94,154.63,154.37Z" transform="translate(-5.42 -6.27)"/><path class="cls-11" d="M6.66,105.5c8.4-2.92,16.91-5.22,25.95-4.2,1.28,2,.6,3.91,0,5.86l-26.9,0a1.8,1.8,0,0,1,0-.74A1.36,1.36,0,0,1,6.66,105.5Z" transform="translate(-5.42 -6.27)"/><path class="cls-12" d="M19.63,157.28l17,8c-5.92.18-11.88.63-17.74-.31a12.32,12.32,0,0,1-7.27-3.92c-2-2.38-.92-3.78,1.52-4.66A7.25,7.25,0,0,1,19.63,157.28Z" transform="translate(-5.42 -6.27)"/><path class="cls-13" d="M61.6,109.31c.73,3.08,4.48,7-2.15,8.07-3.81-5.08-9.12-7.92-15-10,1.29-1,1.28-2.76,2.09-4C52.38,103.34,57.06,106.15,61.6,109.31Z" transform="translate(-5.42 -6.27)"/><path class="cls-14" d="M46.59,103.34c1.67,2.57,2,4.44-2.09,4l-11.94-.23c-1.69-2-.2-3.91,0-5.86C37.37,101.25,42.21,100.74,46.59,103.34Z" transform="translate(-5.42 -6.27)"/><path class="cls-15" d="M19.63,157.28c-1.92,0-3.86,0-5.76.18-2.15.23-3.07,1.45-2.27,3.64a11.56,11.56,0,0,1-5-7.74c3-5.94,6.11-1.77,9.17,0a5.06,5.06,0,0,1,2.89,2Z" transform="translate(-5.42 -6.27)"/><path class="cls-16" d="M154.63,154.37l2.65,8.83c-1.55,2.29-3.95,2.91-6.47,3.26-3.28-3.4-1.25-6.36.78-9.32.51-1.12.74-2.46,2.2-2.85Q154.21,154.32,154.63,154.37Z" transform="translate(-5.42 -6.27)"/><path class="cls-17" d="M153.79,17.11c2.14-1.4,5.15-1.19,6.73-3.63a9.27,9.27,0,0,1,3.17,6.72c-4,2.9-6.91.44-9.9-1.84q-.46-.22-.43-.59t.14-.4Z" transform="translate(-5.42 -6.27)"/><path class="cls-6" d="M106.41,44.34h-.82c-2.25-2.74-1.51-6-1.5-9.07-.05-9-.67-18.07.37-27.09a4,4,0,0,1,1.09-1.54,3.3,3.3,0,0,1,.81,0Q106.39,25.48,106.41,44.34Z" transform="translate(-5.42 -6.27)"/><path class="cls-18" d="M163.52,111.35l-51.85,0c-1.88-1.66-1.55-3.93-1.59-6-.1-5.32.11-10.64-.08-16-.6-17.1-11.28-27.78-28.39-28.38-5.65-.2-11.3,0-17-.07-2.16,0-4.36.08-6.12-1.54l.05.07q0-25,.06-50.05c2.06-.52,3.06,1,3.86,2.32,2.22,3.81,4.85,7.36,7.21,11.08a39.16,39.16,0,0,0,5.5,8.81,10.88,10.88,0,0,1,2.37,4.79c3.72,4,6.38,8.87,11,12,15,15.6,33.13,23.76,55,23,3.31-2.4,7.1-3.22,11.08-3.71a13.54,13.54,0,0,0,6-2.13c3.08-.34,3,1.75,2.95,3.82Q163.55,90.31,163.52,111.35Z" transform="translate(-5.42 -6.27)"/><path class="cls-19" d="M68.61,23.32c-3.82-4.31-5.43-10.19-10-14v-2c8.59-1.15,17.23-.4,25.84-.43,6.94,0,13.92-.72,20.84.45l0,27.87c-1.79,1.89-4,1.61-6,.78C89.13,31.72,78.66,28,68.61,23.32Z" transform="translate(-5.42 -6.27)"/><path class="cls-3" d="M19.73,6.45l19.61.11c.08,5,.23,10,.24,14.93,0,10.77-5.8,17.47-16.36,19.06-5.78.87-11.59.41-17.38.5q0-.92,0-1.85a38.21,38.21,0,0,1,5.21-16.68c.94-1.54,1.85-3.11,3.71-3.73a2.77,2.77,0,0,1,1.48.16c1.92,1.36,1.7,3.49,1.84,5.43.26,3.69,2.88,3.43,5.42,3.45,2.91,0,3.63-1.68,3.62-4.2s-.2-4.72-3.54-4.81c-2-.05-4,.13-5.83-1-1.82-4,2-7,1.76-10.71A1.15,1.15,0,0,1,19.73,6.45Z" transform="translate(-5.42 -6.27)"/><path class="cls-20" d="M105.34,7.36l-46.68,0,0-1,46.95.27Q105.46,7,105.34,7.36Z" transform="translate(-5.42 -6.27)"/><path class="cls-21" d="M14.64,19.36c-4.48,5.93-6.31,13-8.8,19.85L5.42,21.28c1.15-3.87,2.26-7.76,6-10.1C15.47,13.1,16.16,14.85,14.64,19.36Z" transform="translate(-5.42 -6.27)"/><path class="cls-22" d="M14.64,19.36a10.47,10.47,0,0,0-3.22-8.18,10.7,10.7,0,0,1,8.11-4.06c3.28,4.11-1.52,6.66-1.94,10.06-.16,1.15-1.24,1.49-1.92,2.17Z" transform="translate(-5.42 -6.27)"/><path class="cls-23" d="M153.49,17.37l.29,1c-.06,1-.17,2-.18,3-.07,8.53-1.88,9.94-10.38,8.32-1.6-.3-2.09-1-2.35-2.54-1.53-9-.83-9.93,8.17-9.9C150.52,17.2,152,17.31,153.49,17.37Z" transform="translate(-5.42 -6.27)"/><path class="cls-24" d="M153.79,154.31a4,4,0,0,1-2.2,2.85c-2-1.1-4.26-.89-6.29-.67-4.3.46-5.07-1.63-4.63-5.17a27,27,0,0,0,.19-4.44c-.1-2.54,1-3.69,3.54-3.42.82.09,1.65.1,2.47.13,6.8.26,6.79.26,6.74,6.78C153.62,151.68,153.73,153,153.79,154.31Z" transform="translate(-5.42 -6.27)"/><path class="cls-25" d="M18.62,155.32c-1.16-.37-2.8-.07-2.89-2a40.41,40.41,0,0,0,.43-6.39c-.3-3.56.76-5,4.63-4.91,7.51.17,10.37,4.11,7.87,11.34-.6,1.74-1.84,1.6-3.13,1.65Z" transform="translate(-5.42 -6.27)"/><path class="cls-26" d="M160.66,65.46a3.73,3.73,0,0,1-3.52,3c-4.62.55-8.84,2.88-13.56,2.87.27-1.87-.84-3.42-1.53-5.84Z" transform="translate(-5.42 -6.27)"/><path class="cls-27" d="M68.61,23.32C75,23.12,80,27.37,85.81,29c6.6,1.83,12.15,6.94,19.57,6.24q.11,4.55.22,9.1c-8.5-.62-15.51-5.74-23.54-7.8-1.49-.38-2.89-2.07-4.46-.19C74.11,32.33,70.72,28.27,68.61,23.32Z" transform="translate(-5.42 -6.27)"/><path class="cls-28" d="M15.66,19.35a2.18,2.18,0,0,1,1.92-2.17c1,0,2,.12,3,.1,8.13-.13,9.73,1.88,8.19,10.11-.25,1.34-.65,2.17-2.1,2.19l-2.49,0c-7.64.11-7.62.11-7.91-7.42A17.13,17.13,0,0,0,15.66,19.35Z" transform="translate(-5.42 -6.27)"/></svg>